<svg width="0" height="0" class="hidden">
  <symbol fill="none" xmlns="http://www.w3.org/2000/svg" viewBox="0 0 24 24" id="account">
    <path d="M12 2C6.48 2 2 6.48 2 12s4.48 10 10 10 10-4.48 10-10S17.52 2 12 2zM7.07 18.28c.43-.9 3.05-1.78 4.93-1.78s4.51.88 4.93 1.78A7.893 7.893 0 0112 20c-1.86 0-3.57-.64-4.93-1.72zm11.29-1.45c-1.43-1.74-4.9-2.33-6.36-2.33s-4.93.59-6.36 2.33A7.95 7.95 0 014 12c0-4.41 3.59-8 8-8s8 3.59 8 8c0 1.82-.62 3.49-1.64 4.83zM12 6c-1.94 0-3.5 1.56-3.5 3.5S10.06 13 12 13s3.5-1.56 3.5-3.5S13.94 6 12 6zm0 5c-.83 0-1.5-.67-1.5-1.5S11.17 8 12 8s1.5.67 1.5 1.5S12.83 11 12 11z" fill="#fff"></path>
  </symbol>
  <symbol fill="none" xmlns="http://www.w3.org/2000/svg" viewBox="0 0 32 32" id="arrow-down">
    <path d="M26 18l-1.4-1.4-7.6 7.5V3h-2v21.1l-7.6-7.5L6 18l10 10 10-10z" fill="#fff"></path>
  </symbol>
  <symbol fill="none" xmlns="http://www.w3.org/2000/svg" viewBox="0 0 32 32" id="arrow-right">
    <path d="M18 6l-1.4 1.4 7.5 7.6H3v2h21.1l-7.5 7.6L18 26l10-10L18 6z" fill="#FBD784"></path>
  </symbol>
  <symbol fill="none" xmlns="http://www.w3.org/2000/svg" viewBox="0 0 24 24" id="inst">
    <path d="M17.318.077c1.218.056 2.06.235 2.838.537a5.36 5.36 0 011.956 1.274 5.36 5.36 0 011.274 1.956c.302.779.481 1.62.537 2.838C23.992 8.192 24 8.724 24 12s-.008 3.808-.077 5.318c-.056 1.218-.235 2.06-.537 2.839a5.36 5.36 0 01-1.274 1.955 5.36 5.36 0 01-1.956 1.274c-.779.302-1.62.481-2.838.537-1.51.069-2.041.077-5.318.077-3.277 0-3.809-.008-5.318-.077-1.218-.056-2.06-.235-2.839-.537a5.36 5.36 0 01-1.955-1.274 5.36 5.36 0 01-1.274-1.956c-.302-.779-.481-1.62-.537-2.838C.008 15.81 0 15.278 0 12c0-3.277.008-3.81.077-5.318.056-1.218.235-2.06.537-2.838a5.36 5.36 0 011.274-1.956A5.36 5.36 0 013.843.614C4.623.312 5.464.133 6.682.077 8.19.008 8.722 0 12 0c3.277 0 3.81.008 5.318.077zM12 2.667c-3.24 0-3.736.007-5.197.074-.927.042-1.483.16-1.994.359a2.73 2.73 0 00-1.036.673A2.707 2.707 0 003.1 4.809c-.198.51-.317 1.067-.359 1.994C2.674 8.264 2.667 8.76 2.667 12s.007 3.736.074 5.197c.042.927.16 1.483.359 1.993.17.436.35.713.673 1.037.324.324.601.504 1.036.673.51.198 1.067.317 1.994.359 1.462.067 1.958.074 5.197.074 3.24 0 3.735-.007 5.197-.074.927-.042 1.483-.16 1.994-.359a2.73 2.73 0 001.036-.673c.324-.324.504-.601.673-1.036.198-.51.317-1.067.359-1.994.067-1.462.074-1.958.074-5.197s-.007-3.735-.074-5.197c-.042-.927-.16-1.483-.359-1.993a2.708 2.708 0 00-.673-1.037A2.709 2.709 0 0019.19 3.1c-.51-.198-1.067-.317-1.994-.359-1.461-.067-1.957-.074-5.197-.074H12zm0 15.555a6.222 6.222 0 110-12.444 6.222 6.222 0 010 12.444zm0-2.666a3.556 3.556 0 100-7.112 3.556 3.556 0 000 7.112zm6.222-8.445a1.333 1.333 0 110-2.667 1.333 1.333 0 010 2.667z" fill="#fff"></path>
  </symbol>
  <symbol fill="none" xmlns="http://www.w3.org/2000/svg" viewBox="0 0 24 24" id="twit">
    <path d="M19.633 7.997c.013.175.013.349.013.523 0 5.325-4.053 11.461-11.46 11.461-2.282 0-4.402-.661-6.186-1.809.324.037.636.05.973.05a8.07 8.07 0 005.001-1.721 4.035 4.035 0 01-3.767-2.793c.249.037.499.062.761.062.361 0 .724-.05 1.061-.137a4.027 4.027 0 01-3.23-3.953v-.05c.537.299 1.16.486 1.82.511a4.022 4.022 0 01-1.796-3.354c0-.748.199-1.434.548-2.032a11.457 11.457 0 008.306 4.215c-.062-.3-.1-.611-.1-.923a4.024 4.024 0 014.028-4.028c1.16 0 2.207.486 2.943 1.272a7.957 7.957 0 002.556-.973c-.3.93-.93 1.72-1.771 2.22a8.073 8.073 0 002.319-.624 8.646 8.646 0 01-2.019 2.083z" fill="#fff"></path>
  </symbol>
</svg>